<svg version="1.0" xmlns="http://www.w3.org/2000/svg" width="1706.667" height="1193.333" viewBox="0 0 1280 895"><path d="M739.5 1.1c-78.6 9.6-141.4 64.4-161.8 141.4l-2.3 8.5-5.2-7.4c-11.9-16.5-31.4-32.5-49.2-40.2-23.2-10.1-51.1-12.2-77-5.7-28.2 7-55.1 27-70.5 52.4-8.9 14.7-14.8 33-17.1 53.1l-.5 4.6-12.2-5.8c-30.5-14.6-60.6-20.9-93.7-19.7-37.6 1.4-72 12.5-103 33.2-47.3 31.6-78.1 80.5-86.5 137-2 13.1-2.3 40.2-.6 52.5 1.9 13.6 4.8 26.3 9.2 39.3 2.2 6.7 4.4 12.8 4.9 13.7.6 1-.8 2.5-5.3 5.7-31.2 22-53.3 53.6-63.2 90.3-4.1 15.6-5.8 30.6-5.2 46.5C3.3 675.4 55 736.2 129 752.1c9 2 13.5 2.3 31 2.3 18.4 0 21.7-.3 32.5-2.6 10.9-2.4 24.8-6.8 34.8-11.2 2.9-1.3 3.8-1.4 4.1-.4.2.7 1.4 5.3 2.6 10.3 6.4 26.6 22 56.7 40.2 77.5 33.5 38.3 76.8 60.8 126.8 66 72 7.4 144.5-28.8 182.1-91.1 5.7-9.4 12-22.3 15.3-31.2l2.3-5.9 5.8 8.7c18.7 27.7 50.1 50.7 82.1 59.9 28.1 8.2 60.1 7.3 88.7-2.5 36.1-12.3 65.7-37.6 83.2-71.1 10.9-20.9 16.7-44 16.9-67.6l.1-13.3-4.4-3.6-4.4-3.7 10.2-3.3c35.6-11.4 62.9-36.1 77.7-70.1l3.2-7.5 8.6-2.7c49.4-15.9 82.1-63.4 79.3-115-.4-5.8-.9-12.1-1.3-14l-.6-3.5 18.4-.1c18.3 0 27.4-1.1 41.8-5 26.3-7.3 50.9-22.1 70.3-42.2l6.8-7.1 4.8 2.4c16.8 8.5 38 8.2 56.1-.6 6.9-3.4 10.1-5.8 17-12.8 8.9-9 13-15.9 16.6-27.7 2.9-9.2 2.6-26.7-.5-36.2-8-24.3-29.6-42.3-53.7-44.8l-6.4-.7-.6-3.6c-7.8-45.2-35-84.3-74.9-107.4-32.6-18.9-73.3-25-110-16.5-27.9 6.4-51.8 19.4-72.2 39.2l-10.3 9.9v-13.9c0-30.1-5.5-54.8-18.1-81.2-26.6-56-76.4-93.9-138.3-105.3-13-2.4-40.8-3.3-53.1-1.8z" fill="#00bcd4"/></svg>