<svg version="1.0" xmlns="http://www.w3.org/2000/svg" width="1706.667" height="945.333" viewBox="0 0 1280 709"><path d="M649.5 21c-90.6 10-171.6 58.7-221 132.8-9.5 14.4-19.3 33-25 47.7-2.2 5.5-4 10.2-4.2 10.4-.2.3-3.1-.5-6.6-1.7-26.5-9.2-59.4-6.6-85.9 6.9-13.8 7-29.1 19.9-38.3 32.4-9.6 12.9-17 30.5-19.7 46.6l-1.1 7.1-3.1-.7c-13.2-2.7-47.5-3.2-67.1-1-71.3 8-128.8 41.8-160.3 94.2C-4.5 431.9-5.3 478.5 15 519c14.5 29.1 45.3 57.5 81.5 75 65.6 31.9 148.7 32.8 218.1 2.4.7-.3 3.5 3.9 6.7 10.1 21.6 41.4 60.6 70 110 80.7 14.7 3.2 44.7 3.2 58.9.1 29.1-6.5 54.8-19.8 76.2-39.4l5.3-4.8 5.1 2.4c6.3 2.9 24.3 8.8 33.6 10.9 36.8 8.6 76.9 6.6 112.8-5.4 16.8-5.6 28.8-11.4 45.5-22 2-1.3 2.7-.9 11 6.1 11.4 9.7 17.9 14.5 28.3 21 57.3 35.4 129.8 45.6 198.5 27.9 30.5-7.9 60.6-22.8 86.5-42.8 11.6-9 32-29.7 37.5-38.1 2.5-3.8 5.2-7.5 6.1-8.2 1.1-.9 5.1-1.2 14.2-1 8 .1 15.9-.4 21.4-1.4 49.3-8.7 90.5-45.9 103.7-93.4 4.9-17.7 5-42.6.2-61.3-11.5-44.7-48.3-80.1-96-92.5-11.8-3-34.7-4.2-45.6-2.4-16.3 2.8-13.3 3.7-24.8-8-28-28.5-65.9-48.7-114.6-61-8.5-2.1-15.6-4-15.7-4.2-.2-.2-1.3-5.7-2.4-12.3-4.6-26.6-12.3-49.8-24.9-74.9C913.9 106.8 844 51 760 29.1c-23.9-6.2-41.3-8.2-74-8.6-15.7-.2-32.1 0-36.5.5z"/></svg>