<svg version="1.0" xmlns="http://www.w3.org/2000/svg" width="1706.667" height="956" viewBox="0 0 1280 717"><path d="M666 38.6c-1.9.2-8.2.9-14 1.5-52.3 5.6-105.8 27.4-149 61-12.1 9.4-31.9 28.6-42.7 41.4-20.6 24.4-39.2 57.3-48.7 86.2-1.5 4.6-3.2 8.3-3.7 8.3s-3.1-1.1-5.7-2.4C371 219 328.9 223 300 244.5c-7 5.2-18.3 17.2-23.4 25-9.8 14.8-15.1 30.2-16.3 47.2-.3 5.1-.9 9.3-1.2 9.3-.3 0-6.7-.9-14.1-2-71.7-10.6-145 9.7-191.5 53.2-32.4 30.2-47.9 70.2-42.4 109.4 4.2 30.1 22.1 61.1 48.2 83 42.4 35.7 99.4 53.4 162.3 50.3 32.6-1.6 63.2-9.1 91-22.4l11.1-5.2 3.3 8.1c18.2 45.4 58 78.5 107 89.2 13 2.9 47 2.7 59.6-.3 27.9-6.8 50.4-18.8 69.6-37.2l9.8-9.4 8.1 3.7c46.6 21.3 103.5 23.2 151.2 5 11.9-4.6 30.3-14.2 38.9-20.5 3.7-2.7 7.1-4.9 7.4-4.9.4 0 4.3 3.5 8.8 7.8 37.4 35.7 91.7 58.3 147.1 61 54.5 2.7 103.4-10.3 147-39.3 13.2-8.7 30.5-23.5 39.6-33.6 5.5-6.2 18.3-22.5 20.7-26.4.5-.8 3.6-1 9.7-.6 22.5 1.4 43.6-2.6 62.8-12 47.7-23.4 73.3-74.5 63-125.9-2.1-10.5-4.8-18-10.4-29-17.1-33.4-50-56.7-88.4-62.7-12.5-1.9-32.5-1.2-43.8 1.6l-7.8 1.9-9.7-10c-34.3-35.4-81.7-59.5-131.4-66.8l-8.7-1.3-.6-4.6c-4.3-34.1-11.7-59.5-26-88.6-13.9-28.4-30.7-51.9-52.9-74-45.6-45.4-104-73.9-169.7-83-10.7-1.5-53.9-2.8-61.9-1.9z" fill="#ffc107"/></svg>