<svg version="1.0" xmlns="http://www.w3.org/2000/svg" width="1706.667" height="1190.667" viewBox="0 0 1280 893"><path d="M601.5.6c-46.1 3.7-84 13.7-121 31.9-34.4 16.9-61.8 38.4-83.4 65.5-20.4 25.5-35.4 57.5-41.2 88-1.3 6.3-2.4 11.7-2.6 11.9-.2.3-2-1.1-4.1-3.1-25-23.7-64.7-44.1-99.2-50.9-16.6-3.3-44.6-3.4-60.8-.1-71.7 14.4-129.1 72.7-144.9 147-2.4 11.3-2.7 15-2.8 33.8l-.2 21.1-4.3 5.8C6 393.4-6.3 445.9 3.6 493.6c3.9 19.1 15 44.4 26.2 59.9l5.7 8 581.7.3 581.7.2 3.7-6.2c12.1-20.4 23.8-47.3 29.3-67.3 4.6-16.6 6.2-27.3 6.8-45.5.6-16.4.6-16.4 3.8-21.5 5.5-8.5 14.2-25.4 19.5-37.8 25-58.3 23.6-113.8-3.8-155.8-24-36.8-65.8-60.7-115.3-65.9-59.6-6.3-119.3 18.7-157.4 65.9-3.2 3.9-5.9 7-6 6.9-.2-.2-2.8-5.3-6-11.3C908.4 98.2 797.6 18.3 667 2.5 654.2.9 612.5-.3 601.5.6zm-326 591.3c-1.1.5-7.2 4.1-13.5 8.1-37.2 23.5-66.6 47.3-73.2 59.6-4.4 8.2-6 16.5-5.6 28.4.5 13 3.4 20.5 10.8 27.4 5.7 5.4 8.7 6.9 17 9.1 11.2 2.9 23.1.3 34.7-7.5 7.8-5.3 15.9-13.2 18.4-18.1 4.5-8.9 7.8-22.9 10.3-43.5 2.3-18.6 4.8-64.5 3.6-64.3-.3 0-1.4.4-2.5.8zm376.6 8.6c-45 28.7-69.4 49.7-74.9 64.5-5.6 15.3-4.7 32.9 2.4 44 9.8 15.5 29.1 20.2 47 11.5 7.3-3.6 17.7-11.7 21.8-17.1 8.9-11.6 14.2-39 16.7-86.6.6-11.3.9-21.5.7-22.7-.3-1.9-1.6-1.3-13.7 6.4zm369.8.8c-36.9 23.6-63.8 45.6-70.9 58-6.9 12.1-8.1 33.3-2.6 45.4 9.2 20.3 32.3 26 53.7 13.3 17.1-10.1 23.1-19.4 27.9-43 3.5-17.4 7.8-66.5 6.8-78.7l-.3-4.3-14.6 9.3zM178.5 760.1c-10.6 5.6-44.8 29-59.5 40.7-9.3 7.3-22.6 21-25.3 26-7.8 14.5-8 36.9-.2 49.1 8.3 13.3 24.8 19.7 40.2 15.7 12.8-3.2 28.5-14 33.8-23.1 3.5-5.9 7-16.4 9-26.6 3.6-19.2 6.9-57.9 6.3-74.7l-.3-9.2-4 2.1zm387 2.2c-12.4 7.5-40 26.4-50 34.2-13.3 10.3-25.8 22.3-29.7 28.4-7.1 11.3-9.4 31.4-5 43.5 8.1 22.1 30.5 29.7 53.2 18.1 6.1-3.2 15.7-11.1 19.6-16.2 8.7-11.4 14-39.7 16.5-87.5.6-11.9.9-22.1.8-22.6-.2-.5-2.6.5-5.4 2.1zm374-1.9c-1.1.7-10.1 6.6-19.9 13-33.5 21.9-58.8 43.2-64.4 54.3-7.2 14.1-7.1 36.6.3 48.2 3.4 5.5 8.1 9.9 13.9 12.9 4.5 2.4 6.2 2.7 14.6 2.7 7.4-.1 10.7-.6 15.1-2.3 11.1-4.4 23.6-14.6 28.1-22.9 7.6-13.8 12.4-44.5 14.4-91.6.4-8.6.5-15.7.3-15.6-.2 0-1.3.6-2.4 1.3z" fill="#2196f3"/></svg>