<svg version="1.0" xmlns="http://www.w3.org/2000/svg" width="1706.667" height="853.333" viewBox="0 0 1280 640"><path d="M658.6 102.7c.5 41 .3 57.3-1 78.2-.8 14.5-1.7 26.5-1.8 26.6-.2.1-37.4 1.8-82.8 3.9-115.1 5.1-299.2 13.4-318.9 14.3l-16.3.8-16.7-13.3c-9.1-7.4-17-13.7-17.5-14.2-.4-.4-1.8-7.9-3-16.7l-2.2-15.8-11-1.2c-6-.6-12.8-1.2-15.1-1.2-4-.1-4.3.1-4.3 2.5 0 1.9-.4 2.5-1.5 2-.8-.3-25.2-19.6-54.3-42.9L59.5 83.3l-24.8 2.5C21.1 87.3 10 88.7 10 89.1c0 .4 20 34.1 44.5 74.9C79 204.8 99 238.3 99 238.5c0 .2-2.6.6-5.8 1-16.2 1.7-28.4 5.1-30.2 8.5-.6 1-1 4.9-1 8.7.1 11.5 4.4 17.8 15.8 23 2.8 1.4 5.2 2.6 5.2 2.7 0 .2-18.4 12-41 26.2S1 335 1 335.7c0 1.7-1.4 1.7 25.6-1.2l23.1-2.5 42.8-17 42.9-17.1 13.6 3.5c22.3 5.8 113.8 26.3 128 28.7 7.3 1.2 40.5 3.5 77.5 5.4 133.4 6.8 164.6 8.8 185.5 11.5 8 1.1 16.3 2.1 18.4 2.2l3.9.3-9.7 12.5c-25.6 32.9-11.7 21.2-147.1 123.2C339 535.3 283.7 577 282.7 578c-1.7 1.6-1.7 1.7.4 4.4 4.6 5.9 16.2 8.3 26.4 5.5 10.7-2.9 71.9-37.2 208-116.4l52-30.3 29.5 5.4c42.1 7.7 60.9 9.8 101.1 11 12.4.4 24.2.4 26.2 0 7.6-1.4 12.6-9.5 15.7-25.3 3.8-19.4-1.7-37.4-13.3-43.4-8-4.2-27.5-3.5-62.1 2.2-9.8 1.6-18.1 2.8-18.2 2.6-.2-.2 14.1-10.1 31.9-21.9l32.2-21.5 14.5-.6c19.5-.7 44.7-5.8 85.8-17.2 8.6-2.3 64-4.6 190.7-8 131.4-3.4 150.9-4.2 163.5-6.6 34.1-6.6 80.8-20.1 96.2-27.9 8-4.1 13.4-8.4 15.4-12.3 1.7-3.2 1.5-9.6-.7-18.3-2.3-9.2-12.2-16.6-32.4-24.5-6.5-2.6-14.3-6.6-19-9.8-22.8-15.6-28.5-18.9-41.2-23.4-14.4-5.2-40.9-8.7-85.8-11.3l-29-1.7-113 5.2c-62.1 2.8-132.5 6.1-156.4 7.2-23.9 1.1-43.5 1.8-43.6 1.7-.1-.2-2.4-6.4-5.2-13.8-2.8-7.4-15.1-39.9-27.3-72.1l-22.2-58.6-21.1-3.7C670 52.6 660 51 659.3 51c-1 0-1.1 11.6-.7 51.7z"/></svg>